<svg width="204" height="161" viewBox="0 0 204 161" fill="none" xmlns="http://www.w3.org/2000/svg">
<path d="M2.13953 128.626C0.552294 129.101 -0.349174 130.773 0.126049 132.36L7.87025 158.226C8.34547 159.813 10.0174 160.715 11.6047 160.24C13.1919 159.764 14.0934 158.092 13.6182 156.505L6.73442 133.513L29.726 126.63C31.3133 126.155 32.2147 124.483 31.7395 122.895C31.2643 121.308 29.5923 120.407 28.0051 120.882L2.13953 128.626ZM203.765 0.511638C187.296 -0.946564 162.673 1.85639 142.261 15.175C121.64 28.6299 105.681 52.5919 106.501 92.5615L112.499 92.4384C111.719 54.408 126.76 32.4533 145.539 20.1999C164.528 7.81017 187.705 5.11312 203.236 6.48826L203.765 0.511638ZM106.501 92.5615C106.892 111.638 102.775 124.263 96.2797 132.366C89.8186 140.425 80.6698 144.424 70.0866 145.58C48.6885 147.919 22.3223 138.51 4.42375 128.859L1.57625 134.141C19.8444 143.99 47.5283 154.081 70.7385 151.545C82.4595 150.264 93.2544 145.731 100.961 136.119C108.633 126.549 112.908 112.362 112.499 92.4384L106.501 92.5615Z" fill="white"/>
</svg>
