<svg width="89" height="279" viewBox="0 0 89 279" fill="none" xmlns="http://www.w3.org/2000/svg">
<path d="M0.751923 269.168C0.292396 269.857 0.478658 270.789 1.16795 271.248L12.4006 278.737C13.0899 279.196 14.0212 279.01 14.4808 278.32C14.9403 277.631 14.754 276.7 14.0647 276.24L4.08013 269.584L10.7365 259.599C11.196 258.91 11.0098 257.979 10.3205 257.519C9.63119 257.06 8.69989 257.246 8.24036 257.935L0.751923 269.168ZM60.6428 0.269036C44.4576 11.5394 27.2891 33.3875 22.7363 58.6464C18.1541 84.0682 26.3963 112.711 60.6268 137.22L62.3732 134.78C29.0037 110.889 21.3292 83.3651 25.6887 59.1786C30.0776 34.8292 46.7091 13.6273 62.3572 2.73096L60.6428 0.269036ZM60.6268 137.22C77.2275 149.105 84.3243 162.615 85.2015 176.257C86.0833 189.971 80.6967 204.081 71.7985 217.117C62.9089 230.14 50.5963 241.965 37.8608 251.062C25.1074 260.172 12.0485 266.461 1.70582 268.529L2.29418 271.471C13.2014 269.289 26.6548 262.753 39.6045 253.503C52.5721 244.241 65.1533 232.173 74.2763 218.808C83.3906 205.456 89.1353 190.685 88.1953 176.065C87.2506 161.373 79.5725 147.095 62.3732 134.78L60.6268 137.22Z" fill="black"/>
</svg>
