<svg width="587" height="450" viewBox="0 0 587 450" fill="none" xmlns="http://www.w3.org/2000/svg">
<rect x="359.34" y="170.619" width="41.2883" height="41.2883" transform="rotate(-45 359.34 170.619)" fill="#21A0AA"/>
<rect x="287.418" y="29.1953" width="41.2883" height="41.2883" transform="rotate(-45 287.418 29.1953)" fill="#21A0AA"/>
<rect x="122.123" y="378.738" width="41.2883" height="41.2883" transform="rotate(-45 122.123 378.738)" fill="#21A0AA"/>
<rect x="42.6294" y="170.619" width="41.2883" height="41.2883" transform="rotate(-45 42.6294 170.619)" fill="#21A0AA"/>
<path d="M-119.467 495.004C-120.569 496.919 -119.91 499.365 -117.996 500.467C-116.081 501.569 -113.635 500.91 -112.533 498.996L-119.467 495.004ZM72.6383 169.291L76.3946 167.916L73.4481 159.866L69.1716 167.295L72.6383 169.291ZM150.239 381.292L146.482 382.667L149.757 391.613L153.851 383.011L150.239 381.292ZM316.165 32.6156L319.704 30.7529L315.985 23.6845L312.553 30.8968L316.165 32.6156ZM388.087 169.291L384.547 171.153L385.117 172.236L386.195 172.815L388.087 169.291ZM586.347 275.732L576.924 244.461L545.653 253.884L555.076 285.155L586.347 275.732ZM-112.533 498.996L76.105 171.286L69.1716 167.295L-119.467 495.004L-112.533 498.996ZM68.882 170.666L146.482 382.667L153.995 379.917L76.3946 167.916L68.882 170.666ZM153.851 383.011L319.777 34.3344L312.553 30.8968L146.627 379.573L153.851 383.011ZM312.625 34.4783L384.547 171.153L391.627 167.428L319.704 30.7529L312.625 34.4783ZM386.195 172.815L564.108 268.332L567.892 261.284L389.979 165.766L386.195 172.815Z" fill="#21A0AA"/>
</svg>
