<svg width="796" height="443" viewBox="0 0 796 443" fill="none" xmlns="http://www.w3.org/2000/svg">
<path d="M10.5515 74.981L12.4673 74.4068L10.8403 68.9787L8.69968 74.2254L10.5515 74.981ZM61.3038 244.313L59.388 244.887L60.6639 249.144L63.0041 245.366L61.3038 244.313ZM204.119 13.7465L205.85 12.7454L204.178 9.85317L202.418 12.6934L204.119 13.7465ZM381.162 319.919L379.43 320.92L381.101 323.81L382.861 320.973L381.162 319.919ZM486.207 150.587L487.659 149.211L485.875 147.328L484.508 149.532L486.207 150.587ZM687.446 363.033L685.994 364.408L687.147 365.626L688.547 364.703L687.446 363.033ZM795.64 291.693L779.644 288.409L776.36 304.406L792.356 307.689L795.64 291.693ZM-158.148 493.755L12.4033 75.7365L8.69968 74.2254L-161.852 492.244L-158.148 493.755ZM8.63567 75.5552L59.388 244.887L63.2196 243.739L12.4673 74.4068L8.63567 75.5552ZM63.0041 245.366L205.819 14.7997L202.418 12.6934L59.6036 243.26L63.0041 245.366ZM202.387 14.7477L379.43 320.92L382.893 318.918L205.85 12.7454L202.387 14.7477ZM382.861 320.973L487.907 151.641L484.508 149.532L379.462 318.865L382.861 320.973ZM484.755 151.962L685.994 364.408L688.898 361.658L487.659 149.211L484.755 151.962ZM688.547 364.703L787.101 299.719L784.899 296.38L686.345 361.363L688.547 364.703Z" fill="black"/>
<rect x="473.444" y="152.225" width="18.5678" height="18.5678" transform="rotate(-45 473.444 152.225)" fill="black"/>
<rect x="367.219" y="319.682" width="18.5678" height="18.5678" transform="rotate(-45 367.219 319.682)" fill="black"/>
<rect x="674.093" y="364.671" width="18.5678" height="18.5678" transform="rotate(-45 674.093 364.671)" fill="black"/>
<rect x="191.356" y="13.1294" width="18.5678" height="18.5678" transform="rotate(-45 191.356 13.1294)" fill="black"/>
<rect x="49.7213" y="244.701" width="18.5678" height="18.5678" transform="rotate(-45 49.7213 244.701)" fill="black"/>
<rect x="-2.2113" y="74.7442" width="18.5678" height="18.5678" transform="rotate(-45 -2.2113 74.7442)" fill="black"/>
</svg>
