<svg width="207" height="173" viewBox="0 0 207 173" fill="none" xmlns="http://www.w3.org/2000/svg">
<path d="M205.426 26.8001C206.696 25.7364 206.864 23.8443 205.8 22.574L188.467 1.87266C187.403 0.602327 185.511 0.434798 184.24 1.49848C182.97 2.56216 182.803 4.45425 183.866 5.72458L199.274 24.1258L180.873 39.5334C179.602 40.5971 179.435 42.4892 180.499 43.7596C181.562 45.0299 183.454 45.1974 184.725 44.1337L205.426 26.8001ZM4.42375 149.859C2.96537 149.073 1.14568 149.618 0.359368 151.076C-0.426947 152.535 0.11787 154.354 1.57625 155.141L4.42375 149.859ZM203.765 21.5116C187.296 20.0534 162.672 22.8564 142.261 36.175C121.64 49.6299 105.681 73.5919 106.501 113.561L112.499 113.438C111.719 75.408 126.76 53.4533 145.539 41.1999C164.528 28.8102 187.705 26.1131 203.236 27.4883L203.765 21.5116ZM106.501 113.561C106.892 132.638 102.775 145.263 96.2797 153.366C89.8187 161.425 80.6698 165.424 70.0866 166.58C48.6885 168.919 22.3223 159.51 4.42375 149.859L1.57625 155.141C19.8444 164.99 47.5283 175.081 70.7385 172.545C82.4595 171.264 93.2544 166.731 100.961 157.119C108.633 147.549 112.908 133.362 112.499 113.438L106.501 113.561Z" fill="white"/>
</svg>
