<svg width="699" height="368" viewBox="0 0 699 368" fill="none" xmlns="http://www.w3.org/2000/svg">
<circle cx="167.5" cy="167.5" r="167" fill="#FF3131" stroke="#FF3131"/>
<line x1="62.5" y1="153.5" x2="62.5" y2="181.5" stroke="white" stroke-width="11" stroke-linecap="round"/>
<line x1="160.5" y1="145.5" x2="160.5" y2="190.5" stroke="white" stroke-width="11" stroke-linecap="round"/>
<line x1="210.5" y1="145.5" x2="210.5" y2="190.5" stroke="white" stroke-width="11" stroke-linecap="round"/>
<line x1="260.5" y1="145.5" x2="260.5" y2="190.5" stroke="white" stroke-width="11" stroke-linecap="round"/>
<line x1="284.5" y1="153.5" x2="284.5" y2="181.5" stroke="white" stroke-width="11" stroke-linecap="round"/>
<line x1="109.5" y1="81.5001" x2="109.5" y2="253.5" stroke="white" stroke-width="11" stroke-linecap="round"/>
<line x1="84.5" y1="121.5" x2="84.5" y2="213.5" stroke="white" stroke-width="11" stroke-linecap="round"/>
<line x1="135.5" y1="121.5" x2="135.5" y2="213.5" stroke="white" stroke-width="11" stroke-linecap="round"/>
<line x1="183.5" y1="121.5" x2="183.5" y2="213.5" stroke="white" stroke-width="11" stroke-linecap="round"/>
<line x1="235.5" y1="121.5" x2="235.5" y2="213.5" stroke="white" stroke-width="11" stroke-linecap="round"/>
<g filter="url(#filter0_d_3_2)">
<mask id="path-12-outside-1_3_2" maskUnits="userSpaceOnUse" x="376" y="75" width="319" height="199" fill="black">
<rect fill="white" x="376" y="75" width="319" height="199"/>
<path d="M452.4 168H433.072V128.576H396.848V168H377.52V76.608H396.848V112.448H433.072V76.608H452.4V168ZM522.883 168H470.275V76.608H522.883V92.48H489.603V112.576H520.579V128.448H489.603V152H522.883V168ZM592.716 168L586.06 146.24H552.78L546.124 168H525.26L557.516 76.224H581.196L613.58 168H592.716ZM574.796 108.736C574.369 107.285 573.815 105.451 573.132 103.232C572.449 101.013 571.767 98.752 571.084 96.448C570.401 94.144 569.847 92.1387 569.42 90.432C568.993 92.1387 568.396 94.272 567.628 96.832C566.945 99.3067 566.263 101.696 565.58 104C564.983 106.219 564.513 107.797 564.172 108.736L557.644 129.984H581.452L574.796 108.736ZM646.659 76.608C654.936 76.608 661.763 77.632 667.139 79.68C672.515 81.6427 676.526 84.672 679.171 88.768C681.816 92.7787 683.139 97.856 683.139 104C683.139 108.181 682.328 111.851 680.707 115.008C679.171 118.08 677.08 120.725 674.435 122.944C671.875 125.077 669.102 126.827 666.115 128.192L692.995 168H671.491L649.731 132.928H639.363V168H620.035V76.608H646.659ZM645.251 92.48H639.363V117.184H645.635C649.902 117.184 653.358 116.715 656.003 115.776C658.648 114.837 660.568 113.429 661.763 111.552C662.958 109.589 663.555 107.243 663.555 104.512C663.555 101.611 662.872 99.3067 661.507 97.6C660.227 95.808 658.222 94.528 655.491 93.76C652.846 92.9067 649.432 92.48 645.251 92.48ZM416.176 273L394.16 201.32H393.648C393.733 203.027 393.861 205.587 394.032 209C394.203 212.413 394.373 216.083 394.544 220.008C394.715 223.848 394.8 227.347 394.8 230.504V273H377.52V181.608H403.888L425.52 251.496H425.904L448.816 181.608H475.184V273H457.136V229.736C457.136 226.835 457.179 223.507 457.264 219.752C457.435 215.997 457.563 212.456 457.648 209.128C457.819 205.715 457.947 203.155 458.032 201.448H457.52L433.968 273H416.176ZM549.086 273L542.43 251.24H509.15L502.494 273H481.63L513.886 181.224H537.566L569.95 273H549.086ZM531.166 213.736C530.739 212.285 530.185 210.451 529.502 208.232C528.819 206.013 528.137 203.752 527.454 201.448C526.771 199.144 526.217 197.139 525.79 195.432C525.363 197.139 524.766 199.272 523.998 201.832C523.315 204.307 522.633 206.696 521.95 209C521.353 211.219 520.883 212.797 520.542 213.736L514.014 234.984H537.822L531.166 213.736ZM602.605 273H583.277V197.736H558.445V181.608H627.437V197.736H602.605V273ZM689.018 273H636.41V181.608H689.018V197.48H655.738V217.576H686.714V233.448H655.738V257H689.018V273Z"/>
</mask>
<path d="M452.4 168H433.072V128.576H396.848V168H377.52V76.608H396.848V112.448H433.072V76.608H452.4V168ZM522.883 168H470.275V76.608H522.883V92.48H489.603V112.576H520.579V128.448H489.603V152H522.883V168ZM592.716 168L586.06 146.24H552.78L546.124 168H525.26L557.516 76.224H581.196L613.58 168H592.716ZM574.796 108.736C574.369 107.285 573.815 105.451 573.132 103.232C572.449 101.013 571.767 98.752 571.084 96.448C570.401 94.144 569.847 92.1387 569.42 90.432C568.993 92.1387 568.396 94.272 567.628 96.832C566.945 99.3067 566.263 101.696 565.58 104C564.983 106.219 564.513 107.797 564.172 108.736L557.644 129.984H581.452L574.796 108.736ZM646.659 76.608C654.936 76.608 661.763 77.632 667.139 79.68C672.515 81.6427 676.526 84.672 679.171 88.768C681.816 92.7787 683.139 97.856 683.139 104C683.139 108.181 682.328 111.851 680.707 115.008C679.171 118.08 677.08 120.725 674.435 122.944C671.875 125.077 669.102 126.827 666.115 128.192L692.995 168H671.491L649.731 132.928H639.363V168H620.035V76.608H646.659ZM645.251 92.48H639.363V117.184H645.635C649.902 117.184 653.358 116.715 656.003 115.776C658.648 114.837 660.568 113.429 661.763 111.552C662.958 109.589 663.555 107.243 663.555 104.512C663.555 101.611 662.872 99.3067 661.507 97.6C660.227 95.808 658.222 94.528 655.491 93.76C652.846 92.9067 649.432 92.48 645.251 92.48ZM416.176 273L394.16 201.32H393.648C393.733 203.027 393.861 205.587 394.032 209C394.203 212.413 394.373 216.083 394.544 220.008C394.715 223.848 394.8 227.347 394.8 230.504V273H377.52V181.608H403.888L425.52 251.496H425.904L448.816 181.608H475.184V273H457.136V229.736C457.136 226.835 457.179 223.507 457.264 219.752C457.435 215.997 457.563 212.456 457.648 209.128C457.819 205.715 457.947 203.155 458.032 201.448H457.52L433.968 273H416.176ZM549.086 273L542.43 251.24H509.15L502.494 273H481.63L513.886 181.224H537.566L569.95 273H549.086ZM531.166 213.736C530.739 212.285 530.185 210.451 529.502 208.232C528.819 206.013 528.137 203.752 527.454 201.448C526.771 199.144 526.217 197.139 525.79 195.432C525.363 197.139 524.766 199.272 523.998 201.832C523.315 204.307 522.633 206.696 521.95 209C521.353 211.219 520.883 212.797 520.542 213.736L514.014 234.984H537.822L531.166 213.736ZM602.605 273H583.277V197.736H558.445V181.608H627.437V197.736H602.605V273ZM689.018 273H636.41V181.608H689.018V197.48H655.738V217.576H686.714V233.448H655.738V257H689.018V273Z" fill="white"/>
<path d="M452.4 168V169H453.4V168H452.4ZM433.072 168H432.072V169H433.072V168ZM433.072 128.576H434.072V127.576H433.072V128.576ZM396.848 128.576V127.576H395.848V128.576H396.848ZM396.848 168V169H397.848V168H396.848ZM377.52 168H376.52V169H377.52V168ZM377.52 76.608V75.608H376.52V76.608H377.52ZM396.848 76.608H397.848V75.608H396.848V76.608ZM396.848 112.448H395.848V113.448H396.848V112.448ZM433.072 112.448V113.448H434.072V112.448H433.072ZM433.072 76.608V75.608H432.072V76.608H433.072ZM452.4 76.608H453.4V75.608H452.4V76.608ZM452.4 167H433.072V169H452.4V167ZM434.072 168V128.576H432.072V168H434.072ZM433.072 127.576H396.848V129.576H433.072V127.576ZM395.848 128.576V168H397.848V128.576H395.848ZM396.848 167H377.52V169H396.848V167ZM378.52 168V76.608H376.52V168H378.52ZM377.52 77.608H396.848V75.608H377.52V77.608ZM395.848 76.608V112.448H397.848V76.608H395.848ZM396.848 113.448H433.072V111.448H396.848V113.448ZM434.072 112.448V76.608H432.072V112.448H434.072ZM433.072 77.608H452.4V75.608H433.072V77.608ZM451.4 76.608V168H453.4V76.608H451.4ZM522.883 168V169H523.883V168H522.883ZM470.275 168H469.275V169H470.275V168ZM470.275 76.608V75.608H469.275V76.608H470.275ZM522.883 76.608H523.883V75.608H522.883V76.608ZM522.883 92.48V93.48H523.883V92.48H522.883ZM489.603 92.48V91.48H488.603V92.48H489.603ZM489.603 112.576H488.603V113.576H489.603V112.576ZM520.579 112.576H521.579V111.576H520.579V112.576ZM520.579 128.448V129.448H521.579V128.448H520.579ZM489.603 128.448V127.448H488.603V128.448H489.603ZM489.603 152H488.603V153H489.603V152ZM522.883 152H523.883V151H522.883V152ZM522.883 167H470.275V169H522.883V167ZM471.275 168V76.608H469.275V168H471.275ZM470.275 77.608H522.883V75.608H470.275V77.608ZM521.883 76.608V92.48H523.883V76.608H521.883ZM522.883 91.48H489.603V93.48H522.883V91.48ZM488.603 92.48V112.576H490.603V92.48H488.603ZM489.603 113.576H520.579V111.576H489.603V113.576ZM519.579 112.576V128.448H521.579V112.576H519.579ZM520.579 127.448H489.603V129.448H520.579V127.448ZM488.603 128.448V152H490.603V128.448H488.603ZM489.603 153H522.883V151H489.603V153ZM521.883 152V168H523.883V152H521.883ZM592.716 168L591.76 168.293L591.976 169H592.716V168ZM586.06 146.24L587.016 145.947L586.8 145.24H586.06V146.24ZM552.78 146.24V145.24H552.04L551.824 145.947L552.78 146.24ZM546.124 168V169H546.864L547.08 168.293L546.124 168ZM525.26 168L524.317 167.668L523.849 169H525.26V168ZM557.516 76.224V75.224H556.807L556.573 75.8924L557.516 76.224ZM581.196 76.224L582.139 75.8912L581.904 75.224H581.196V76.224ZM613.58 168V169H614.993L614.523 167.667L613.58 168ZM574.796 108.736L573.837 109.018L573.839 109.027L573.842 109.035L574.796 108.736ZM573.132 103.232L572.176 103.526L573.132 103.232ZM571.084 96.448L570.125 96.7321V96.7321L571.084 96.448ZM569.42 90.432L570.39 90.1895L568.45 90.1895L569.42 90.432ZM567.628 96.832L566.67 96.5446L566.667 96.5553L566.664 96.5661L567.628 96.832ZM565.58 104L564.621 103.716L564.618 103.728L564.614 103.74L565.58 104ZM564.172 108.736L563.232 108.394L563.224 108.418L563.216 108.442L564.172 108.736ZM557.644 129.984L556.688 129.69L556.291 130.984H557.644V129.984ZM581.452 129.984V130.984H582.813L582.406 129.685L581.452 129.984ZM593.672 167.707L587.016 145.947L585.104 146.533L591.76 168.293L593.672 167.707ZM586.06 145.24H552.78V147.24H586.06V145.24ZM551.824 145.947L545.168 167.707L547.08 168.293L553.736 146.533L551.824 145.947ZM546.124 167H525.26V169H546.124V167ZM526.203 168.332L558.459 76.5556L556.573 75.8924L524.317 167.668L526.203 168.332ZM557.516 77.224H581.196V75.224H557.516V77.224ZM580.253 76.5568L612.637 168.333L614.523 167.667L582.139 75.8912L580.253 76.5568ZM613.58 167H592.716V169H613.58V167ZM575.755 108.454C575.327 106.998 574.771 105.159 574.088 102.938L572.176 103.526C572.858 105.743 573.412 107.573 573.837 109.018L575.755 108.454ZM574.088 102.938C573.406 100.723 572.725 98.4647 572.043 96.1639L570.125 96.7321C570.809 99.0393 571.492 101.304 572.176 103.526L574.088 102.938ZM572.043 96.1639C571.363 93.8691 570.812 91.8782 570.39 90.1895L568.45 90.6745C568.881 92.3991 569.44 94.4189 570.125 96.7321L572.043 96.1639ZM568.45 90.1895C568.028 91.8755 567.436 93.9927 566.67 96.5446L568.586 97.1193C569.356 94.5513 569.958 92.4018 570.39 90.6745L568.45 90.1895ZM566.664 96.5661C565.983 99.0351 565.302 101.418 564.621 103.716L566.539 104.284C567.223 101.974 567.908 99.5783 568.592 97.0979L566.664 96.5661ZM564.614 103.74C564.017 105.957 563.558 107.499 563.232 108.394L565.112 109.078C565.469 108.095 565.948 106.48 566.546 104.26L564.614 103.74ZM563.216 108.442L556.688 129.69L558.6 130.278L565.128 109.03L563.216 108.442ZM557.644 130.984H581.452V128.984H557.644V130.984ZM582.406 129.685L575.75 108.437L573.842 109.035L580.498 130.283L582.406 129.685ZM667.139 79.68L666.783 80.6146L666.796 80.6194L667.139 79.68ZM679.171 88.768L678.331 89.3105L678.336 89.3186L679.171 88.768ZM680.707 115.008L679.817 114.551L679.813 114.561L680.707 115.008ZM674.435 122.944L675.075 123.712L675.078 123.71L674.435 122.944ZM666.115 128.192L665.699 127.283L664.626 127.773L665.286 128.752L666.115 128.192ZM692.995 168V169H694.877L693.824 167.44L692.995 168ZM671.491 168L670.641 168.527L670.935 169H671.491V168ZM649.731 132.928L650.581 132.401L650.287 131.928H649.731V132.928ZM639.363 132.928V131.928H638.363V132.928H639.363ZM639.363 168V169H640.363V168H639.363ZM620.035 168H619.035V169H620.035V168ZM620.035 76.608V75.608H619.035V76.608H620.035ZM639.363 92.48V91.48H638.363V92.48H639.363ZM639.363 117.184H638.363V118.184H639.363V117.184ZM656.003 115.776L656.337 116.718V116.718L656.003 115.776ZM661.763 111.552L662.607 112.089L662.612 112.08L662.617 112.072L661.763 111.552ZM661.507 97.6L660.693 98.1812L660.709 98.2034L660.726 98.2247L661.507 97.6ZM655.491 93.76L655.184 94.7117L655.202 94.7175L655.22 94.7226L655.491 93.76ZM646.659 77.608C654.864 77.608 661.559 78.6243 666.783 80.6145L667.495 78.7455C661.967 76.6397 655.009 75.608 646.659 75.608V77.608ZM666.796 80.6194C672.004 82.5208 675.823 85.4278 678.331 89.3105L680.011 88.2255C677.228 83.9162 673.026 80.7645 667.482 78.7406L666.796 80.6194ZM678.336 89.3186C680.847 93.1258 682.139 97.9975 682.139 104H684.139C684.139 97.7144 682.785 92.4315 680.006 88.2174L678.336 89.3186ZM682.139 104C682.139 108.051 681.354 111.558 679.817 114.551L681.597 115.465C683.302 112.143 684.139 108.312 684.139 104H682.139ZM679.813 114.561C678.338 117.51 676.333 120.047 673.792 122.178L675.078 123.71C677.827 121.404 680.004 118.65 681.601 115.455L679.813 114.561ZM673.795 122.176C671.302 124.253 668.604 125.955 665.699 127.283L666.531 129.101C669.599 127.699 672.448 125.902 675.075 123.712L673.795 122.176ZM665.286 128.752L692.166 168.56L693.824 167.44L666.944 127.632L665.286 128.752ZM692.995 167H671.491V169H692.995V167ZM672.341 167.473L650.581 132.401L648.881 133.455L670.641 168.527L672.341 167.473ZM649.731 131.928H639.363V133.928H649.731V131.928ZM638.363 132.928V168H640.363V132.928H638.363ZM639.363 167H620.035V169H639.363V167ZM621.035 168V76.608H619.035V168H621.035ZM620.035 77.608H646.659V75.608H620.035V77.608ZM645.251 91.48H639.363V93.48H645.251V91.48ZM638.363 92.48V117.184H640.363V92.48H638.363ZM639.363 118.184H645.635V116.184H639.363V118.184ZM645.635 118.184C649.963 118.184 653.544 117.71 656.337 116.718L655.669 114.834C653.171 115.72 649.841 116.184 645.635 116.184V118.184ZM656.337 116.718C659.137 115.725 661.264 114.199 662.607 112.089L660.919 111.015C659.873 112.66 658.16 113.95 655.669 114.834L656.337 116.718ZM662.617 112.072C663.924 109.925 664.555 107.391 664.555 104.512H662.555C662.555 107.094 661.991 109.253 660.909 111.032L662.617 112.072ZM664.555 104.512C664.555 101.458 663.836 98.9098 662.288 96.9753L660.726 98.2247C661.909 99.7035 662.555 101.763 662.555 104.512H664.555ZM662.321 97.0188C660.874 94.9938 658.648 93.609 655.762 92.7973L655.22 94.7226C657.796 95.447 659.58 96.6221 660.693 98.1812L662.321 97.0188ZM655.798 92.8083C653.017 91.9112 649.49 91.48 645.251 91.48V93.48C649.375 93.48 652.674 93.9022 655.184 94.7117L655.798 92.8083ZM416.176 273L415.22 273.294L415.437 274H416.176V273ZM394.16 201.32L395.116 201.026L394.899 200.32H394.16V201.32ZM393.648 201.32V200.32H392.597L392.649 201.37L393.648 201.32ZM394.032 209L393.033 209.05L394.032 209ZM394.544 220.008L393.545 220.051L393.545 220.052L394.544 220.008ZM394.8 273V274H395.8V273H394.8ZM377.52 273H376.52V274H377.52V273ZM377.52 181.608V180.608H376.52V181.608H377.52ZM403.888 181.608L404.843 181.312L404.625 180.608H403.888V181.608ZM425.52 251.496L424.565 251.792L424.783 252.496H425.52V251.496ZM425.904 251.496V252.496H426.629L426.854 251.808L425.904 251.496ZM448.816 181.608V180.608H448.091L447.866 181.296L448.816 181.608ZM475.184 181.608H476.184V180.608H475.184V181.608ZM475.184 273V274H476.184V273H475.184ZM457.136 273H456.136V274H457.136V273ZM457.264 219.752L456.265 219.707L456.265 219.718L456.264 219.729L457.264 219.752ZM457.648 209.128L456.649 209.078L456.649 209.09L456.648 209.102L457.648 209.128ZM458.032 201.448L459.031 201.498L459.083 200.448H458.032V201.448ZM457.52 201.448V200.448H456.796L456.57 201.135L457.52 201.448ZM433.968 273V274H434.692L434.918 273.313L433.968 273ZM417.132 272.706L395.116 201.026L393.204 201.614L415.22 273.294L417.132 272.706ZM394.16 200.32H393.648V202.32H394.16V200.32ZM392.649 201.37C392.735 203.077 392.863 205.637 393.033 209.05L395.031 208.95C394.86 205.537 394.732 202.977 394.647 201.27L392.649 201.37ZM393.033 209.05C393.204 212.461 393.374 216.128 393.545 220.051L395.543 219.965C395.372 216.037 395.202 212.366 395.031 208.95L393.033 209.05ZM393.545 220.052C393.715 223.881 393.8 227.364 393.8 230.504H395.8C395.8 227.329 395.714 223.815 395.543 219.964L393.545 220.052ZM393.8 230.504V273H395.8V230.504H393.8ZM394.8 272H377.52V274H394.8V272ZM378.52 273V181.608H376.52V273H378.52ZM377.52 182.608H403.888V180.608H377.52V182.608ZM402.933 181.904L424.565 251.792L426.475 251.2L404.843 181.312L402.933 181.904ZM425.52 252.496H425.904V250.496H425.52V252.496ZM426.854 251.808L449.766 181.92L447.866 181.296L424.954 251.184L426.854 251.808ZM448.816 182.608H475.184V180.608H448.816V182.608ZM474.184 181.608V273H476.184V181.608H474.184ZM475.184 272H457.136V274H475.184V272ZM458.136 273V229.736H456.136V273H458.136ZM458.136 229.736C458.136 226.844 458.179 223.524 458.264 219.775L456.264 219.729C456.179 223.489 456.136 226.825 456.136 229.736H458.136ZM458.263 219.797C458.434 216.037 458.562 212.489 458.648 209.154L456.648 209.102C456.563 212.423 456.435 215.958 456.265 219.707L458.263 219.797ZM458.647 209.178C458.817 205.765 458.945 203.205 459.031 201.498L457.033 201.398C456.948 203.105 456.82 205.665 456.649 209.078L458.647 209.178ZM458.032 200.448H457.52V202.448H458.032V200.448ZM456.57 201.135L433.018 272.687L434.918 273.313L458.47 201.761L456.57 201.135ZM433.968 272H416.176V274H433.968V272ZM549.086 273L548.13 273.293L548.346 274H549.086V273ZM542.43 251.24L543.386 250.947L543.17 250.24H542.43V251.24ZM509.15 251.24V250.24H508.41L508.194 250.947L509.15 251.24ZM502.494 273V274H503.234L503.45 273.293L502.494 273ZM481.63 273L480.687 272.668L480.219 274H481.63V273ZM513.886 181.224V180.224H513.177L512.943 180.892L513.886 181.224ZM537.566 181.224L538.509 180.891L538.274 180.224H537.566V181.224ZM569.95 273V274H571.363L570.893 272.667L569.95 273ZM531.166 213.736L530.207 214.018L530.209 214.027L530.212 214.035L531.166 213.736ZM529.502 208.232L528.546 208.526L529.502 208.232ZM527.454 201.448L526.495 201.732L527.454 201.448ZM525.79 195.432L526.76 195.189H524.82L525.79 195.432ZM523.998 201.832L523.04 201.545L523.037 201.555L523.034 201.566L523.998 201.832ZM521.95 209L520.991 208.716L520.988 208.728L520.984 208.74L521.95 209ZM520.542 213.736L519.602 213.394L519.594 213.418L519.586 213.442L520.542 213.736ZM514.014 234.984L513.058 234.69L512.661 235.984H514.014V234.984ZM537.822 234.984V235.984H539.183L538.776 234.685L537.822 234.984ZM550.042 272.707L543.386 250.947L541.474 251.533L548.13 273.293L550.042 272.707ZM542.43 250.24H509.15V252.24H542.43V250.24ZM508.194 250.947L501.538 272.707L503.45 273.293L510.106 251.533L508.194 250.947ZM502.494 272H481.63V274H502.494V272ZM482.573 273.332L514.829 181.556L512.943 180.892L480.687 272.668L482.573 273.332ZM513.886 182.224H537.566V180.224H513.886V182.224ZM536.623 181.557L569.007 273.333L570.893 272.667L538.509 180.891L536.623 181.557ZM569.95 272H549.086V274H569.95V272ZM532.125 213.454C531.697 211.998 531.141 210.159 530.458 207.938L528.546 208.526C529.228 210.743 529.782 212.573 530.207 214.018L532.125 213.454ZM530.458 207.938C529.776 205.723 529.095 203.465 528.413 201.164L526.495 201.732C527.179 204.039 527.863 206.304 528.546 208.526L530.458 207.938ZM528.413 201.164C527.733 198.869 527.182 196.878 526.76 195.189L524.82 195.675C525.251 197.399 525.81 199.419 526.495 201.732L528.413 201.164ZM524.82 195.189C524.398 196.876 523.806 198.993 523.04 201.545L524.956 202.119C525.726 199.551 526.328 197.402 526.76 195.675L524.82 195.189ZM523.034 201.566C522.353 204.035 521.672 206.418 520.991 208.716L522.909 209.284C523.593 206.974 524.278 204.578 524.962 202.098L523.034 201.566ZM520.984 208.74C520.387 210.957 519.928 212.499 519.602 213.394L521.482 214.078C521.839 213.095 522.318 211.48 522.916 209.26L520.984 208.74ZM519.586 213.442L513.058 234.69L514.97 235.278L521.498 214.03L519.586 213.442ZM514.014 235.984H537.822V233.984H514.014V235.984ZM538.776 234.685L532.12 213.437L530.212 214.035L536.868 235.283L538.776 234.685ZM602.605 273V274H603.605V273H602.605ZM583.277 273H582.277V274H583.277V273ZM583.277 197.736H584.277V196.736H583.277V197.736ZM558.445 197.736H557.445V198.736H558.445V197.736ZM558.445 181.608V180.608H557.445V181.608H558.445ZM627.437 181.608H628.437V180.608H627.437V181.608ZM627.437 197.736V198.736H628.437V197.736H627.437ZM602.605 197.736V196.736H601.605V197.736H602.605ZM602.605 272H583.277V274H602.605V272ZM584.277 273V197.736H582.277V273H584.277ZM583.277 196.736H558.445V198.736H583.277V196.736ZM559.445 197.736V181.608H557.445V197.736H559.445ZM558.445 182.608H627.437V180.608H558.445V182.608ZM626.437 181.608V197.736H628.437V181.608H626.437ZM627.437 196.736H602.605V198.736H627.437V196.736ZM601.605 197.736V273H603.605V197.736H601.605ZM689.018 273V274H690.018V273H689.018ZM636.41 273H635.41V274H636.41V273ZM636.41 181.608V180.608H635.41V181.608H636.41ZM689.018 181.608H690.018V180.608H689.018V181.608ZM689.018 197.48V198.48H690.018V197.48H689.018ZM655.738 197.48V196.48H654.738V197.48H655.738ZM655.738 217.576H654.738V218.576H655.738V217.576ZM686.714 217.576H687.714V216.576H686.714V217.576ZM686.714 233.448V234.448H687.714V233.448H686.714ZM655.738 233.448V232.448H654.738V233.448H655.738ZM655.738 257H654.738V258H655.738V257ZM689.018 257H690.018V256H689.018V257ZM689.018 272H636.41V274H689.018V272ZM637.41 273V181.608H635.41V273H637.41ZM636.41 182.608H689.018V180.608H636.41V182.608ZM688.018 181.608V197.48H690.018V181.608H688.018ZM689.018 196.48H655.738V198.48H689.018V196.48ZM654.738 197.48V217.576H656.738V197.48H654.738ZM655.738 218.576H686.714V216.576H655.738V218.576ZM685.714 217.576V233.448H687.714V217.576H685.714ZM686.714 232.448H655.738V234.448H686.714V232.448ZM654.738 233.448V257H656.738V233.448H654.738ZM655.738 258H689.018V256H655.738V258ZM688.018 257V273H690.018V257H688.018Z" fill="black" mask="url(#path-12-outside-1_3_2)"/>
</g>
<path d="M402.3 358H396.864V346.912H386.676V358H381.24V332.296H386.676V342.376H396.864V332.296H402.3V358ZM416.795 337.984C418.619 337.984 420.179 338.332 421.475 339.028C422.795 339.724 423.815 340.732 424.535 342.052C425.255 343.372 425.615 344.992 425.615 346.912V349.504H412.943C412.991 351.016 413.435 352.204 414.275 353.068C415.139 353.932 416.327 354.364 417.839 354.364C419.111 354.364 420.263 354.244 421.295 354.004C422.327 353.74 423.395 353.344 424.499 352.816V356.956C423.539 357.436 422.519 357.784 421.439 358C420.383 358.24 419.099 358.36 417.587 358.36C415.619 358.36 413.879 358 412.367 357.28C410.855 356.536 409.667 355.42 408.803 353.932C407.939 352.444 407.507 350.572 407.507 348.316C407.507 346.012 407.891 344.104 408.659 342.592C409.451 341.056 410.543 339.904 411.935 339.136C413.327 338.368 414.947 337.984 416.795 337.984ZM416.831 341.8C415.799 341.8 414.935 342.136 414.239 342.808C413.567 343.48 413.171 344.524 413.051 345.94H420.575C420.575 345.148 420.431 344.44 420.143 343.816C419.879 343.192 419.471 342.7 418.919 342.34C418.367 341.98 417.671 341.8 416.831 341.8ZM438.389 337.948C441.029 337.948 443.045 338.524 444.437 339.676C445.853 340.804 446.561 342.544 446.561 344.896V358H442.817L441.773 355.336H441.629C441.077 356.032 440.501 356.608 439.901 357.064C439.325 357.52 438.653 357.844 437.885 358.036C437.141 358.252 436.217 358.36 435.113 358.36C433.961 358.36 432.917 358.144 431.981 357.712C431.069 357.256 430.349 356.572 429.821 355.66C429.293 354.724 429.029 353.548 429.029 352.132C429.029 350.044 429.761 348.508 431.225 347.524C432.689 346.516 434.885 345.964 437.813 345.868L441.233 345.76V344.896C441.233 343.864 440.957 343.108 440.405 342.628C439.877 342.148 439.133 341.908 438.173 341.908C437.213 341.908 436.277 342.052 435.365 342.34C434.453 342.604 433.541 342.94 432.629 343.348L430.865 339.712C431.921 339.16 433.085 338.728 434.357 338.416C435.653 338.104 436.997 337.948 438.389 337.948ZM439.145 348.964C437.417 349.012 436.217 349.324 435.545 349.9C434.873 350.476 434.537 351.232 434.537 352.168C434.537 352.984 434.777 353.572 435.257 353.932C435.737 354.268 436.361 354.436 437.129 354.436C438.281 354.436 439.253 354.1 440.045 353.428C440.837 352.732 441.233 351.76 441.233 350.512V348.892L439.145 348.964ZM463.391 337.984C463.655 337.984 463.967 337.996 464.327 338.02C464.687 338.044 464.975 338.08 465.191 338.128L464.795 343.168C464.627 343.12 464.375 343.084 464.039 343.06C463.727 343.012 463.451 342.988 463.211 342.988C462.515 342.988 461.843 343.084 461.195 343.276C460.547 343.444 459.959 343.72 459.431 344.104C458.927 344.488 458.519 345.004 458.207 345.652C457.919 346.276 457.775 347.056 457.775 347.992V358H452.411V338.344H456.479L457.271 341.656H457.523C457.907 340.984 458.387 340.372 458.963 339.82C459.539 339.268 460.199 338.824 460.943 338.488C461.711 338.152 462.527 337.984 463.391 337.984ZM474.483 338.344V358H469.119V338.344H474.483ZM471.819 330.64C472.611 330.64 473.295 330.832 473.871 331.216C474.447 331.576 474.735 332.26 474.735 333.268C474.735 334.252 474.447 334.936 473.871 335.32C473.295 335.704 472.611 335.896 471.819 335.896C471.003 335.896 470.307 335.704 469.731 335.32C469.179 334.936 468.903 334.252 468.903 333.268C468.903 332.26 469.179 331.576 469.731 331.216C470.307 330.832 471.003 330.64 471.819 330.64ZM491.608 337.984C493.72 337.984 495.412 338.56 496.684 339.712C497.956 340.84 498.592 342.664 498.592 345.184V358H493.228V346.516C493.228 345.1 492.976 344.044 492.472 343.348C491.968 342.628 491.164 342.268 490.06 342.268C488.428 342.268 487.312 342.832 486.712 343.96C486.112 345.064 485.812 346.66 485.812 348.748V358H480.448V338.344H484.552L485.272 340.864H485.56C485.992 340.192 486.52 339.652 487.144 339.244C487.768 338.812 488.464 338.5 489.232 338.308C490 338.092 490.792 337.984 491.608 337.984ZM510.84 337.984C512.04 337.984 513.12 338.224 514.08 338.704C515.04 339.184 515.856 339.904 516.528 340.864H516.672L517.104 338.344H521.64V358.036C521.64 359.908 521.268 361.48 520.524 362.752C519.804 364.024 518.712 364.984 517.248 365.632C515.784 366.304 513.972 366.64 511.812 366.64C510.42 366.64 509.124 366.556 507.924 366.388C506.748 366.22 505.596 365.92 504.468 365.488V361.204C505.284 361.54 506.1 361.816 506.916 362.032C507.756 362.272 508.608 362.44 509.472 362.536C510.36 362.656 511.248 362.716 512.136 362.716C513.528 362.716 514.56 362.344 515.232 361.6C515.928 360.856 516.276 359.74 516.276 358.252V357.856C516.276 357.448 516.288 357.028 516.312 356.596C516.36 356.164 516.396 355.78 516.42 355.444H516.276C515.604 356.476 514.8 357.22 513.864 357.676C512.928 358.132 511.872 358.36 510.696 358.36C508.368 358.36 506.544 357.472 505.224 355.696C503.928 353.896 503.28 351.4 503.28 348.208C503.28 346.048 503.58 344.212 504.18 342.7C504.78 341.164 505.644 340 506.772 339.208C507.924 338.392 509.28 337.984 510.84 337.984ZM512.532 342.34C511.692 342.34 510.984 342.568 510.408 343.024C509.856 343.456 509.436 344.116 509.148 345.004C508.884 345.868 508.752 346.96 508.752 348.28C508.752 350.248 509.064 351.724 509.688 352.708C510.312 353.668 511.284 354.148 512.604 354.148C513.3 354.148 513.9 354.064 514.404 353.896C514.908 353.704 515.316 353.404 515.628 352.996C515.964 352.564 516.216 352.012 516.384 351.34C516.552 350.668 516.636 349.852 516.636 348.892V348.244C516.636 346.828 516.492 345.688 516.204 344.824C515.916 343.96 515.472 343.336 514.872 342.952C514.272 342.544 513.492 342.34 512.532 342.34ZM549.925 354.076C550.525 354.076 551.101 354.016 551.653 353.896C552.205 353.776 552.757 353.632 553.309 353.464V357.46C552.733 357.7 552.013 357.904 551.149 358.072C550.309 358.264 549.385 358.36 548.377 358.36C547.201 358.36 546.145 358.168 545.209 357.784C544.297 357.4 543.565 356.74 543.013 355.804C542.485 354.844 542.221 353.524 542.221 351.844V342.376H539.665V340.108L542.617 338.308L544.165 334.168H547.585V338.344H553.093V342.376H547.585V351.844C547.585 352.588 547.801 353.152 548.233 353.536C548.665 353.896 549.229 354.076 549.925 354.076ZM565.714 337.984C567.538 337.984 569.098 338.332 570.394 339.028C571.714 339.724 572.734 340.732 573.454 342.052C574.174 343.372 574.534 344.992 574.534 346.912V349.504H561.862C561.91 351.016 562.354 352.204 563.194 353.068C564.058 353.932 565.246 354.364 566.758 354.364C568.03 354.364 569.182 354.244 570.214 354.004C571.246 353.74 572.314 353.344 573.418 352.816V356.956C572.458 357.436 571.438 357.784 570.358 358C569.302 358.24 568.018 358.36 566.506 358.36C564.538 358.36 562.798 358 561.286 357.28C559.774 356.536 558.586 355.42 557.722 353.932C556.858 352.444 556.426 350.572 556.426 348.316C556.426 346.012 556.81 344.104 557.578 342.592C558.37 341.056 559.462 339.904 560.854 339.136C562.246 338.368 563.866 337.984 565.714 337.984ZM565.75 341.8C564.718 341.8 563.854 342.136 563.158 342.808C562.486 343.48 562.09 344.524 561.97 345.94H569.494C569.494 345.148 569.35 344.44 569.062 343.816C568.798 343.192 568.39 342.7 567.838 342.34C567.286 341.98 566.59 341.8 565.75 341.8ZM592.96 352.168C592.96 353.488 592.648 354.616 592.024 355.552C591.4 356.464 590.464 357.16 589.216 357.64C587.968 358.12 586.42 358.36 584.572 358.36C583.204 358.36 582.028 358.264 581.044 358.072C580.06 357.904 579.076 357.616 578.092 357.208V352.78C579.148 353.26 580.288 353.656 581.512 353.968C582.736 354.28 583.816 354.436 584.752 354.436C585.808 354.436 586.552 354.28 586.984 353.968C587.44 353.656 587.668 353.248 587.668 352.744C587.668 352.408 587.572 352.108 587.38 351.844C587.212 351.58 586.828 351.28 586.228 350.944C585.628 350.608 584.692 350.176 583.42 349.648C582.196 349.12 581.188 348.604 580.396 348.1C579.604 347.572 579.016 346.948 578.632 346.228C578.248 345.484 578.056 344.56 578.056 343.456C578.056 341.632 578.764 340.264 580.18 339.352C581.596 338.44 583.48 337.984 585.832 337.984C587.056 337.984 588.22 338.104 589.324 338.344C590.428 338.584 591.568 338.98 592.744 339.532L591.124 343.384C590.476 343.096 589.852 342.844 589.252 342.628C588.652 342.412 588.064 342.244 587.488 342.124C586.936 342.004 586.36 341.944 585.76 341.944C584.968 341.944 584.368 342.052 583.96 342.268C583.576 342.484 583.384 342.808 583.384 343.24C583.384 343.552 583.48 343.84 583.672 344.104C583.888 344.344 584.284 344.608 584.86 344.896C585.46 345.184 586.336 345.568 587.488 346.048C588.616 346.504 589.588 346.984 590.404 347.488C591.22 347.968 591.844 348.58 592.276 349.324C592.732 350.044 592.96 350.992 592.96 352.168ZM605.778 354.076C606.378 354.076 606.954 354.016 607.506 353.896C608.058 353.776 608.61 353.632 609.162 353.464V357.46C608.586 357.7 607.866 357.904 607.002 358.072C606.162 358.264 605.238 358.36 604.23 358.36C603.054 358.36 601.998 358.168 601.062 357.784C600.15 357.4 599.418 356.74 598.866 355.804C598.338 354.844 598.074 353.524 598.074 351.844V342.376H595.518V340.108L598.47 338.308L600.018 334.168H603.438V338.344H608.946V342.376H603.438V351.844C603.438 352.588 603.654 353.152 604.086 353.536C604.518 353.896 605.082 354.076 605.778 354.076ZM635.568 337.948C638.208 337.948 640.224 338.524 641.616 339.676C643.032 340.804 643.74 342.544 643.74 344.896V358H639.996L638.952 355.336H638.808C638.256 356.032 637.68 356.608 637.08 357.064C636.504 357.52 635.832 357.844 635.064 358.036C634.32 358.252 633.396 358.36 632.292 358.36C631.14 358.36 630.096 358.144 629.16 357.712C628.248 357.256 627.528 356.572 627 355.66C626.472 354.724 626.208 353.548 626.208 352.132C626.208 350.044 626.94 348.508 628.404 347.524C629.868 346.516 632.064 345.964 634.992 345.868L638.412 345.76V344.896C638.412 343.864 638.136 343.108 637.584 342.628C637.056 342.148 636.312 341.908 635.352 341.908C634.392 341.908 633.456 342.052 632.544 342.34C631.632 342.604 630.72 342.94 629.808 343.348L628.044 339.712C629.1 339.16 630.264 338.728 631.536 338.416C632.832 338.104 634.176 337.948 635.568 337.948ZM636.324 348.964C634.596 349.012 633.396 349.324 632.724 349.9C632.052 350.476 631.716 351.232 631.716 352.168C631.716 352.984 631.956 353.572 632.436 353.932C632.916 354.268 633.54 354.436 634.308 354.436C635.46 354.436 636.432 354.1 637.224 353.428C638.016 352.732 638.412 351.76 638.412 350.512V348.892L636.324 348.964ZM660.534 337.984C662.742 337.984 664.53 338.848 665.898 340.576C667.266 342.28 667.95 344.8 667.95 348.136C667.95 350.368 667.626 352.252 666.978 353.788C666.33 355.3 665.442 356.44 664.314 357.208C663.186 357.976 661.878 358.36 660.39 358.36C659.454 358.36 658.638 358.24 657.942 358C657.27 357.76 656.694 357.448 656.214 357.064C655.734 356.68 655.314 356.272 654.954 355.84H654.666C654.762 356.296 654.834 356.776 654.882 357.28C654.93 357.76 654.954 358.24 654.954 358.72V366.64H649.59V338.344H653.946L654.702 340.9H654.954C655.314 340.372 655.746 339.892 656.25 339.46C656.754 339.004 657.354 338.644 658.05 338.38C658.77 338.116 659.598 337.984 660.534 337.984ZM658.806 342.268C657.87 342.268 657.126 342.46 656.574 342.844C656.022 343.228 655.614 343.816 655.35 344.608C655.11 345.376 654.978 346.348 654.954 347.524V348.1C654.954 349.372 655.074 350.452 655.314 351.34C655.554 352.204 655.962 352.864 656.538 353.32C657.114 353.776 657.894 354.004 658.878 354.004C659.694 354.004 660.366 353.776 660.894 353.32C661.422 352.864 661.818 352.192 662.082 351.304C662.346 350.416 662.478 349.336 662.478 348.064C662.478 346.144 662.178 344.704 661.578 343.744C661.002 342.76 660.078 342.268 658.806 342.268ZM683.675 337.984C685.883 337.984 687.671 338.848 689.039 340.576C690.407 342.28 691.091 344.8 691.091 348.136C691.091 350.368 690.767 352.252 690.119 353.788C689.471 355.3 688.583 356.44 687.455 357.208C686.327 357.976 685.019 358.36 683.531 358.36C682.595 358.36 681.779 358.24 681.083 358C680.411 357.76 679.835 357.448 679.355 357.064C678.875 356.68 678.455 356.272 678.095 355.84H677.807C677.903 356.296 677.975 356.776 678.023 357.28C678.071 357.76 678.095 358.24 678.095 358.72V366.64H672.731V338.344H677.087L677.843 340.9H678.095C678.455 340.372 678.887 339.892 679.391 339.46C679.895 339.004 680.495 338.644 681.191 338.38C681.911 338.116 682.739 337.984 683.675 337.984ZM681.947 342.268C681.011 342.268 680.267 342.46 679.715 342.844C679.163 343.228 678.755 343.816 678.491 344.608C678.251 345.376 678.119 346.348 678.095 347.524V348.1C678.095 349.372 678.215 350.452 678.455 351.34C678.695 352.204 679.103 352.864 679.679 353.32C680.255 353.776 681.035 354.004 682.019 354.004C682.835 354.004 683.507 353.776 684.035 353.32C684.563 352.864 684.959 352.192 685.223 351.304C685.487 350.416 685.619 349.336 685.619 348.064C685.619 346.144 685.319 344.704 684.719 343.744C684.143 342.76 683.219 342.268 681.947 342.268Z" fill="white"/>
<defs>
<filter id="filter0_d_3_2" x="372.52" y="75.224" width="326.357" height="206.776" filterUnits="userSpaceOnUse" color-interpolation-filters="sRGB">
<feFlood flood-opacity="0" result="BackgroundImageFix"/>
<feColorMatrix in="SourceAlpha" type="matrix" values="0 0 0 0 0 0 0 0 0 0 0 0 0 0 0 0 0 0 127 0" result="hardAlpha"/>
<feOffset dy="4"/>
<feGaussianBlur stdDeviation="2"/>
<feComposite in2="hardAlpha" operator="out"/>
<feColorMatrix type="matrix" values="0 0 0 0 0 0 0 0 0 0 0 0 0 0 0 0 0 0 0.25 0"/>
<feBlend mode="normal" in2="BackgroundImageFix" result="effect1_dropShadow_3_2"/>
<feBlend mode="normal" in="SourceGraphic" in2="effect1_dropShadow_3_2" result="shape"/>
</filter>
</defs>
</svg>
