<svg width="119" height="130" viewBox="0 0 119 130" fill="none" xmlns="http://www.w3.org/2000/svg">
<path d="M13.9032 129.876C14.6632 130.206 15.5465 129.857 15.8761 129.097L21.2476 116.711C21.5772 115.951 21.2283 115.068 20.4683 114.738C19.7082 114.409 18.8249 114.758 18.4953 115.518L13.7207 126.527L2.71143 121.752C1.9514 121.423 1.06807 121.772 0.738453 122.532C0.408835 123.292 0.757751 124.175 1.51778 124.505L13.9032 129.876ZM118.478 5.5781C86.8041 -5.06425 50.468 0.339751 27.0019 21.2552C3.41575 42.2776 -6.81306 78.6258 13.1049 129.051L15.8951 127.949C-3.68696 78.3741 6.58422 43.4723 28.998 23.4947C51.5319 3.41016 86.6958 -1.93583 117.522 8.42187L118.478 5.5781Z" fill="black"/>
</svg>
